<svg xmlns="http://www.w3.org/2000/svg" viewBox="0 0 64 64" width="64" height="64">
  <ellipse cx="32" cy="53" rx="13.5" ry="8.5" fill="#e2e8f0"/>
  <!-- Head tilted right and up -->
  <g transform="translate(2, -2) rotate(6 32 34)">
    <circle cx="32" cy="34" r="18" fill="#f8fafc"/>
    <polygon points="16,25 21,11 29,21" fill="#f8fafc"/>
    <polygon points="19,23 22,14 27,21" fill="#f472b6"/>
    <polygon points="48,23 43,8 35,19" fill="#f8fafc"/>
    <polygon points="45,21 42,11 37,19" fill="#f472b6"/>
    <!-- Winking eye -->
    <circle cx="26" cy="32" r="2.5" fill="#334155"/>
    <path d="M 34 33 Q 37 28 41 33" stroke="#334155" stroke-width="2.5" fill="none" stroke-linecap="round"/>
    <polygon points="31,37 33,37 32,39" fill="#f43f5e"/>
    <path d="M 29 40 Q 32 43 35 40" stroke="#475569" stroke-width="1.8" fill="none" stroke-linecap="round"/>
    <circle cx="21" cy="38" r="3" fill="#fca5a5" opacity="0.85"/>
    <circle cx="43" cy="38" r="3" fill="#fca5a5" opacity="0.85"/>
    <path d="M 13 32 A 20 20 0 0 1 51 32" stroke="#ec4899" stroke-width="4.5" fill="none" stroke-linecap="round"/>
    <rect x="10" y="27" width="5" height="12" rx="2.5" fill="#a855f7"/>
    <rect x="49" y="27" width="5" height="12" rx="2.5" fill="#a855f7"/>
  </g>
  <text x="52" y="20" font-family="sans-serif" font-size="15" font-weight="bold" fill="#ec4899">♬</text>
</svg>