<svg xmlns="http://www.w3.org/2000/svg" viewBox="0 0 28 28" width="28" height="28">
  <g transform="translate(1, -1) rotate(4 12 16)">
    <circle cx="12" cy="16" r="8" fill="#f8fafc"/>
    <polygon points="5,12 8,5 12,10" fill="#f8fafc"/>
    <polygon points="6.5,11 8.5,7 11,10" fill="#f472b6"/>
    <polygon points="19,10 18,3 13,8" fill="#f8fafc"/>
    <polygon points="18,9 17,5 14,8" fill="#f472b6"/>
    <!-- Winking Eye -->
    <circle cx="9" cy="16" r="1.4" fill="#334155"/>
    <path d="M 13 16 Q 14 14 16 16" stroke="#334155" stroke-width="1.4" fill="none" stroke-linecap="round"/>
    <circle cx="7.5" cy="18" r="1.3" fill="#fca5a5"/>
    <circle cx="16.5" cy="18" r="1.3" fill="#fca5a5"/>
    <path d="M 3.5 15 A 9 9 0 0 1 20.5 15" stroke="#ec4899" stroke-width="2" fill="none" stroke-linecap="round"/>
    <rect x="2" y="13" width="2.5" height="6" rx="1.2" fill="#a855f7"/>
    <rect x="19.5" y="13" width="2.5" height="6" rx="1.2" fill="#a855f7"/>
  </g>
  <!-- Mini Note ♪ -->
  <text x="22" y="12" font-family="sans-serif" font-size="9" font-weight="bold" fill="#f472b6">♪</text>
  <rect x="24.5" y="14" width="1.5" height="7" rx="0.7" fill="#a855f7"/>
</svg>